STARTFONT 2.1
FONT --Helv14S-Regular-R-Normal--16-160-72-72-P-110-FONTSPECIFIC-0
SIZE 16 72 72
FONTBOUNDINGBOX 21 16 0 -3
METRICSSET 2
STARTPROPERTIES 19
FONT_ASCENT 13
FONT_DESCENT 3
PIXEL_SIZE 16
RESOLUTION_X 72
RESOLUTION_Y 72
POINT_SIZE 160
FACE_NAME "Modern 14-point"
FOUNDRY ""
FAMILY_NAME "Helv14S"
WEIGHT_NAME "Regular"
RELATIVE_WEIGHT 50
SLANT "R"
SPACING "P"
SETWIDTH_NAME "Normal"
RELATIVE_SETWIDTH 50
ADD_STYLE_NAME ""
AVERAGE_WIDTH 110
CHARSET_REGISTRY "FONTSPECIFIC"
CHARSET_ENCODING "0"
ENDPROPERTIES
CHARS 194
STARTCHAR char08
ENCODING 8
SWIDTH 688 0
DWIDTH 11 0
BBX 9 9 1 0
VVECTOR 6 13
SWIDTH1 0 -1000
DWIDTH1 0 -16
BITMAP 
8000
8000
9000
B000
FF80
B000
9000
8000
8000
ENDCHAR
STARTCHAR char09
ENCODING 9
SWIDTH 688 0
DWIDTH 11 0
BBX 9 9 1 0
VVECTOR 6 13
SWIDTH1 0 -1000
DWIDTH1 0 -16
BITMAP 
0080
0080
0480
0680
FF80
0680
0480
0080
0080
ENDCHAR
STARTCHAR char0C
ENCODING 12
SWIDTH 1000 0
DWIDTH 16 0
BBX 14 12 1 -1
VVECTOR 8 13
SWIDTH1 0 -1000
DWIDTH1 0 -16
BITMAP 
FFFC
C00C
C00C
C00C
C00C
C00C
C00C
C00C
C00C
C30C
E79C
0FC0
ENDCHAR
STARTCHAR char0D
ENCODING 13
SWIDTH 1000 0
DWIDTH 16 0
BBX 12 12 2 -1
VVECTOR 8 13
SWIDTH1 0 -1000
DWIDTH1 0 -16
BITMAP 
1F80
0060
0030
0030
0030
0030
0030
2030
6060
FF80
6000
2000
ENDCHAR
STARTCHAR char1C
ENCODING 28
SWIDTH 688 0
DWIDTH 11 0
BBX 9 5 1 2
VVECTOR 6 13
SWIDTH1 0 -1000
DWIDTH1 0 -16
BITMAP 
2000
6000
FF80
6000
2000
ENDCHAR
STARTCHAR char1D
ENCODING 29
SWIDTH 688 0
DWIDTH 11 0
BBX 9 5 1 2
VVECTOR 6 13
SWIDTH1 0 -1000
DWIDTH1 0 -16
BITMAP 
0200
0300
FF80
0300
0200
ENDCHAR
STARTCHAR char1E
ENCODING 30
SWIDTH 688 0
DWIDTH 11 0
BBX 5 8 3 1
VVECTOR 6 13
SWIDTH1 0 -1000
DWIDTH1 0 -16
BITMAP 
20
70
F8
20
20
20
20
20
ENDCHAR
STARTCHAR char1F
ENCODING 31
SWIDTH 688 0
DWIDTH 11 0
BBX 5 8 3 1
VVECTOR 6 13
SWIDTH1 0 -1000
DWIDTH1 0 -16
BITMAP 
20
20
20
20
20
F8
70
20
ENDCHAR
STARTCHAR char20
ENCODING 32
SWIDTH 375 0
DWIDTH 6 0
BBX 0 0 0 -3
VVECTOR 0 -3
SWIDTH1 0 0
DWIDTH1 0 0
BITMAP 
ENDCHAR
STARTCHAR char21
ENCODING 33
SWIDTH 438 0
DWIDTH 7 0
BBX 2 10 2 0
VVECTOR 3 13
SWIDTH1 0 -1000
DWIDTH1 0 -16
BITMAP 
C0
C0
C0
C0
C0
C0
C0
00
00
C0
ENDCHAR
STARTCHAR char22
ENCODING 34
SWIDTH 500 0
DWIDTH 8 0
BBX 6 4 1 6
VVECTOR 4 13
SWIDTH1 0 -1000
DWIDTH1 0 -16
BITMAP 
CC
CC
CC
CC
ENDCHAR
STARTCHAR char23
ENCODING 35
SWIDTH 1000 0
DWIDTH 16 0
BBX 13 9 1 1
VVECTOR 8 13
SWIDTH1 0 -1000
DWIDTH1 0 -16
BITMAP 
0C60
0C60
7FF8
18C0
18C0
18C0
FFF0
3180
3180
ENDCHAR
STARTCHAR char24
ENCODING 36
SWIDTH 688 0
DWIDTH 11 0
BBX 7 12 2 -1
VVECTOR 6 13
SWIDTH1 0 -1000
DWIDTH1 0 -16
BITMAP 
10
10
7C
C6
C0
7C
06
06
C6
7C
10
10
ENDCHAR
STARTCHAR char25
ENCODING 37
SWIDTH 1000 0
DWIDTH 16 0
BBX 14 10 1 0
VVECTOR 8 13
SWIDTH1 0 -1000
DWIDTH1 0 -16
BITMAP 
7800
CC60
CCC0
CD80
7B00
0378
06CC
0CCC
18CC
0078
ENDCHAR
STARTCHAR char26
ENCODING 38
SWIDTH 812 0
DWIDTH 13 0
BBX 11 10 1 0
VVECTOR 7 13
SWIDTH1 0 -1000
DWIDTH1 0 -16
BITMAP 
3C00
6600
6600
3C00
6C60
C6C0
C380
C380
C6C0
7C60
ENDCHAR
STARTCHAR char27
ENCODING 39
SWIDTH 375 0
DWIDTH 6 0
BBX 2 4 2 6
VVECTOR 3 13
SWIDTH1 0 -1000
DWIDTH1 0 -16
BITMAP 
C0
C0
C0
C0
ENDCHAR
STARTCHAR char28
ENCODING 40
SWIDTH 438 0
DWIDTH 7 0
BBX 5 14 1 -2
VVECTOR 4 13
SWIDTH1 0 -1000
DWIDTH1 0 -16
BITMAP 
18
30
60
60
C0
C0
C0
C0
C0
C0
60
60
30
18
ENDCHAR
STARTCHAR char29
ENCODING 41
SWIDTH 438 0
DWIDTH 7 0
BBX 5 14 1 -2
VVECTOR 4 13
SWIDTH1 0 -1000
DWIDTH1 0 -16
BITMAP 
C0
60
30
30
18
18
18
18
18
18
30
30
60
C0
ENDCHAR
STARTCHAR char2A
ENCODING 42
SWIDTH 688 0
DWIDTH 11 0
BBX 9 5 1 5
VVECTOR 6 13
SWIDTH1 0 -1000
DWIDTH1 0 -16
BITMAP 
6300
3600
FF80
3600
6300
ENDCHAR
STARTCHAR char2B
ENCODING 43
SWIDTH 1000 0
DWIDTH 16 0
BBX 12 9 2 1
VVECTOR 8 13
SWIDTH1 0 -1000
DWIDTH1 0 -16
BITMAP 
0600
0600
0600
0600
FFF0
0600
0600
0600
0600
ENDCHAR
STARTCHAR char2C
ENCODING 44
SWIDTH 250 0
DWIDTH 4 0
BBX 4 3 0 -2
VVECTOR 2 13
SWIDTH1 0 -1000
DWIDTH1 0 -16
BITMAP 
30
60
C0
ENDCHAR
STARTCHAR char2D
ENCODING 45
SWIDTH 1000 0
DWIDTH 16 0
BBX 12 1 2 5
VVECTOR 8 13
SWIDTH1 0 -1000
DWIDTH1 0 -16
BITMAP 
FFF0
ENDCHAR
STARTCHAR char2E
ENCODING 46
SWIDTH 250 0
DWIDTH 4 0
BBX 2 1 1 0
VVECTOR 2 13
SWIDTH1 0 -1000
DWIDTH1 0 -16
BITMAP 
C0
ENDCHAR
STARTCHAR char2F
ENCODING 47
SWIDTH 438 0
DWIDTH 7 0
BBX 6 10 0 0
VVECTOR 3 13
SWIDTH1 0 -1000
DWIDTH1 0 -16
BITMAP 
0C
0C
18
18
30
30
60
60
C0
C0
ENDCHAR
STARTCHAR char30
ENCODING 48
SWIDTH 688 0
DWIDTH 11 0
BBX 8 10 1 0
VVECTOR 5 13
SWIDTH1 0 -1000
DWIDTH1 0 -16
BITMAP 
7E
C3
C3
C3
C3
C3
C3
C3
C3
7E
ENDCHAR
STARTCHAR char31
ENCODING 49
SWIDTH 688 0
DWIDTH 11 0
BBX 5 10 2 0
VVECTOR 5 13
SWIDTH1 0 -1000
DWIDTH1 0 -16
BITMAP 
18
38
F8
18
18
18
18
18
18
18
ENDCHAR
STARTCHAR char32
ENCODING 50
SWIDTH 688 0
DWIDTH 11 0
BBX 8 10 1 0
VVECTOR 5 13
SWIDTH1 0 -1000
DWIDTH1 0 -16
BITMAP 
7E
C3
C3
06
0C
18
30
60
C0
FF
ENDCHAR
STARTCHAR char33
ENCODING 51
SWIDTH 688 0
DWIDTH 11 0
BBX 8 10 1 0
VVECTOR 5 13
SWIDTH1 0 -1000
DWIDTH1 0 -16
BITMAP 
7E
C3
C3
03
1E
03
03
C3
C3
7E
ENDCHAR
STARTCHAR char34
ENCODING 52
SWIDTH 688 0
DWIDTH 11 0
BBX 9 10 1 0
VVECTOR 6 13
SWIDTH1 0 -1000
DWIDTH1 0 -16
BITMAP 
0600
0E00
1E00
3600
6600
C600
FF80
0600
0600
0600
ENDCHAR
STARTCHAR char35
ENCODING 53
SWIDTH 688 0
DWIDTH 11 0
BBX 8 10 1 0
VVECTOR 5 13
SWIDTH1 0 -1000
DWIDTH1 0 -16
BITMAP 
7E
60
60
60
7E
03
03
C3
C3
7E
ENDCHAR
STARTCHAR char36
ENCODING 54
SWIDTH 688 0
DWIDTH 11 0
BBX 8 10 2 0
VVECTOR 6 13
SWIDTH1 0 -1000
DWIDTH1 0 -16
BITMAP 
7E
C3
C0
C0
FE
C3
C3
C3
C3
7E
ENDCHAR
STARTCHAR char37
ENCODING 55
SWIDTH 688 0
DWIDTH 11 0
BBX 8 10 1 0
VVECTOR 5 13
SWIDTH1 0 -1000
DWIDTH1 0 -16
BITMAP 
FF
03
06
06
0C
0C
0C
18
18
18
ENDCHAR
STARTCHAR char38
ENCODING 56
SWIDTH 688 0
DWIDTH 11 0
BBX 8 10 1 0
VVECTOR 5 13
SWIDTH1 0 -1000
DWIDTH1 0 -16
BITMAP 
7E
C3
C3
C3
7E
C3
C3
C3
C3
7E
ENDCHAR
STARTCHAR char39
ENCODING 57
SWIDTH 688 0
DWIDTH 11 0
BBX 8 10 1 0
VVECTOR 5 13
SWIDTH1 0 -1000
DWIDTH1 0 -16
BITMAP 
7E
C3
C3
C3
C3
7F
03
03
C3
7E
ENDCHAR
STARTCHAR char3A
ENCODING 58
SWIDTH 250 0
DWIDTH 4 0
BBX 2 7 1 0
VVECTOR 2 13
SWIDTH1 0 -1000
DWIDTH1 0 -16
BITMAP 
C0
00
00
00
00
00
C0
ENDCHAR
STARTCHAR char3B
ENCODING 59
SWIDTH 250 0
DWIDTH 4 0
BBX 4 9 0 -2
VVECTOR 2 13
SWIDTH1 0 -1000
DWIDTH1 0 -16
BITMAP 
30
00
00
00
00
00
30
60
C0
ENDCHAR
STARTCHAR char3C
ENCODING 60
SWIDTH 688 0
DWIDTH 11 0
BBX 6 9 2 1
VVECTOR 5 13
SWIDTH1 0 -1000
DWIDTH1 0 -16
BITMAP 
0C
18
30
60
C0
60
30
18
0C
ENDCHAR
STARTCHAR char3D
ENCODING 61
SWIDTH 1000 0
DWIDTH 16 0
BBX 12 3 2 4
VVECTOR 8 13
SWIDTH1 0 -1000
DWIDTH1 0 -16
BITMAP 
FFF0
0000
FFF0
ENDCHAR
STARTCHAR char3E
ENCODING 62
SWIDTH 688 0
DWIDTH 11 0
BBX 6 9 3 1
VVECTOR 6 13
SWIDTH1 0 -1000
DWIDTH1 0 -16
BITMAP 
C0
60
30
18
0C
18
30
60
C0
ENDCHAR
STARTCHAR char3F
ENCODING 63
SWIDTH 688 0
DWIDTH 11 0
BBX 8 10 1 0
VVECTOR 5 13
SWIDTH1 0 -1000
DWIDTH1 0 -16
BITMAP 
7E
C3
C3
06
0C
18
18
00
00
18
ENDCHAR
STARTCHAR char40
ENCODING 64
SWIDTH 1000 0
DWIDTH 16 0
BBX 14 9 1 1
VVECTOR 8 13
SWIDTH1 0 -1000
DWIDTH1 0 -16
BITMAP 
1FE0
6018
C7CC
CCCC
CCCC
CDCC
C778
6000
1F80
ENDCHAR
STARTCHAR char41
ENCODING 65
SWIDTH 812 0
DWIDTH 13 0
BBX 11 10 1 0
VVECTOR 7 13
SWIDTH1 0 -1000
DWIDTH1 0 -16
BITMAP 
0E00
1B00
1B00
3180
3180
60C0
7FC0
60C0
C060
C060
ENDCHAR
STARTCHAR char42
ENCODING 66
SWIDTH 812 0
DWIDTH 13 0
BBX 10 10 2 0
VVECTOR 7 13
SWIDTH1 0 -1000
DWIDTH1 0 -16
BITMAP 
FF80
C0C0
C0C0
C0C0
FF80
C0C0
C0C0
C0C0
C0C0
FF80
ENDCHAR
STARTCHAR char43
ENCODING 67
SWIDTH 812 0
DWIDTH 13 0
BBX 11 10 1 0
VVECTOR 7 13
SWIDTH1 0 -1000
DWIDTH1 0 -16
BITMAP 
1F00
60C0
C060
C060
C000
C000
C060
C060
60C0
1F00
ENDCHAR
STARTCHAR char44
ENCODING 68
SWIDTH 812 0
DWIDTH 13 0
BBX 10 10 2 0
VVECTOR 7 13
SWIDTH1 0 -1000
DWIDTH1 0 -16
BITMAP 
FE00
C180
C0C0
C0C0
C0C0
C0C0
C0C0
C0C0
C180
FE00
ENDCHAR
STARTCHAR char45
ENCODING 69
SWIDTH 688 0
DWIDTH 11 0
BBX 8 10 2 0
VVECTOR 6 13
SWIDTH1 0 -1000
DWIDTH1 0 -16
BITMAP 
FF
C0
C0
C0
FE
C0
C0
C0
C0
FF
ENDCHAR
STARTCHAR char46
ENCODING 70
SWIDTH 688 0
DWIDTH 11 0
BBX 8 10 2 0
VVECTOR 6 13
SWIDTH1 0 -1000
DWIDTH1 0 -16
BITMAP 
FF
C0
C0
C0
FE
C0
C0
C0
C0
C0
ENDCHAR
STARTCHAR char47
ENCODING 71
SWIDTH 812 0
DWIDTH 13 0
BBX 11 10 1 0
VVECTOR 7 13
SWIDTH1 0 -1000
DWIDTH1 0 -16
BITMAP 
1F00
60C0
C060
C000
C000
C3E0
C060
C060
60E0
1F60
ENDCHAR
STARTCHAR char48
ENCODING 72
SWIDTH 875 0
DWIDTH 14 0
BBX 10 10 2 0
VVECTOR 7 13
SWIDTH1 0 -1000
DWIDTH1 0 -16
BITMAP 
C0C0
C0C0
C0C0
C0C0
FFC0
C0C0
C0C0
C0C0
C0C0
C0C0
ENDCHAR
STARTCHAR char49
ENCODING 73
SWIDTH 375 0
DWIDTH 6 0
BBX 2 10 2 0
VVECTOR 3 13
SWIDTH1 0 -1000
DWIDTH1 0 -16
BITMAP 
C0
C0
C0
C0
C0
C0
C0
C0
C0
C0
ENDCHAR
STARTCHAR char4A
ENCODING 74
SWIDTH 625 0
DWIDTH 10 0
BBX 7 10 1 0
VVECTOR 5 13
SWIDTH1 0 -1000
DWIDTH1 0 -16
BITMAP 
06
06
06
06
06
06
06
06
C6
7C
ENDCHAR
STARTCHAR char4B
ENCODING 75
SWIDTH 812 0
DWIDTH 13 0
BBX 10 10 2 0
VVECTOR 7 13
SWIDTH1 0 -1000
DWIDTH1 0 -16
BITMAP 
C0C0
C180
C300
C600
CC00
DC00
F600
E300
C180
C0C0
ENDCHAR
STARTCHAR char4C
ENCODING 76
SWIDTH 625 0
DWIDTH 10 0
BBX 7 10 2 0
VVECTOR 6 13
SWIDTH1 0 -1000
DWIDTH1 0 -16
BITMAP 
C0
C0
C0
C0
C0
C0
C0
C0
C0
FE
ENDCHAR
STARTCHAR char4D
ENCODING 77
SWIDTH 1062 0
DWIDTH 17 0
BBX 13 10 2 0
VVECTOR 9 13
SWIDTH1 0 -1000
DWIDTH1 0 -16
BITMAP 
8008
C018
E038
F078
D8D8
CD98
C718
C218
C018
C018
ENDCHAR
STARTCHAR char4E
ENCODING 78
SWIDTH 875 0
DWIDTH 14 0
BBX 10 10 2 0
VVECTOR 7 13
SWIDTH1 0 -1000
DWIDTH1 0 -16
BITMAP 
C0C0
E0C0
F0C0
D8C0
CCC0
C6C0
C3C0
C1C0
C0C0
C040
ENDCHAR
STARTCHAR char4F
ENCODING 79
SWIDTH 875 0
DWIDTH 14 0
BBX 12 10 1 0
VVECTOR 7 13
SWIDTH1 0 -1000
DWIDTH1 0 -16
BITMAP 
1F80
6060
C030
C030
C030
C030
C030
C030
6060
1F80
ENDCHAR
STARTCHAR char50
ENCODING 80
SWIDTH 688 0
DWIDTH 11 0
BBX 8 10 2 0
VVECTOR 6 13
SWIDTH1 0 -1000
DWIDTH1 0 -16
BITMAP 
FE
C3
C3
C3
C3
FE
C0
C0
C0
C0
ENDCHAR
STARTCHAR char51
ENCODING 81
SWIDTH 875 0
DWIDTH 14 0
BBX 12 12 1 -2
VVECTOR 7 13
SWIDTH1 0 -1000
DWIDTH1 0 -16
BITMAP 
1F80
6060
C030
C030
C030
C030
C030
C630
6360
1FC0
0180
00C0
ENDCHAR
STARTCHAR char52
ENCODING 82
SWIDTH 812 0
DWIDTH 13 0
BBX 10 10 2 0
VVECTOR 7 13
SWIDTH1 0 -1000
DWIDTH1 0 -16
BITMAP 
FF00
C180
C180
C180
C180
FF00
C180
C180
C180
C0C0
ENDCHAR
STARTCHAR char53
ENCODING 83
SWIDTH 688 0
DWIDTH 11 0
BBX 9 10 1 0
VVECTOR 6 13
SWIDTH1 0 -1000
DWIDTH1 0 -16
BITMAP 
7F00
C180
C180
7000
1C00
0700
0180
C180
C180
7F00
ENDCHAR
STARTCHAR char54
ENCODING 84
SWIDTH 625 0
DWIDTH 10 0
BBX 8 10 1 0
VVECTOR 5 13
SWIDTH1 0 -1000
DWIDTH1 0 -16
BITMAP 
FF
18
18
18
18
18
18
18
18
18
ENDCHAR
STARTCHAR char55
ENCODING 85
SWIDTH 750 0
DWIDTH 12 0
BBX 10 10 1 0
VVECTOR 6 13
SWIDTH1 0 -1000
DWIDTH1 0 -16
BITMAP 
C0C0
C0C0
C0C0
C0C0
C0C0
C0C0
C0C0
C0C0
6180
1E00
ENDCHAR
STARTCHAR char56
ENCODING 86
SWIDTH 812 0
DWIDTH 13 0
BBX 11 10 1 0
VVECTOR 7 13
SWIDTH1 0 -1000
DWIDTH1 0 -16
BITMAP 
C060
C060
60C0
60C0
60C0
3180
3180
1B00
1B00
0E00
ENDCHAR
STARTCHAR char57
ENCODING 87
SWIDTH 1188 0
DWIDTH 19 0
BBX 17 10 1 0
VVECTOR 10 13
SWIDTH1 0 -1000
DWIDTH1 0 -16
BITMAP 
C00180
C00180
C1C180
636300
636300
636300
363600
363600
363600
1C1C00
ENDCHAR
STARTCHAR char58
ENCODING 88
SWIDTH 812 0
DWIDTH 13 0
BBX 11 10 1 0
VVECTOR 7 13
SWIDTH1 0 -1000
DWIDTH1 0 -16
BITMAP 
C060
60C0
3180
1B00
0E00
0E00
1B00
3180
60C0
C060
ENDCHAR
STARTCHAR char59
ENCODING 89
SWIDTH 750 0
DWIDTH 12 0
BBX 12 10 0 0
VVECTOR 6 13
SWIDTH1 0 -1000
DWIDTH1 0 -16
BITMAP 
C030
6060
30C0
1980
0F00
0600
0600
0600
0600
0600
ENDCHAR
STARTCHAR char5A
ENCODING 90
SWIDTH 688 0
DWIDTH 11 0
BBX 9 10 1 0
VVECTOR 6 13
SWIDTH1 0 -1000
DWIDTH1 0 -16
BITMAP 
FF80
0180
0300
0600
0C00
1800
3000
6000
C000
FF80
ENDCHAR
STARTCHAR char5B
ENCODING 91
SWIDTH 438 0
DWIDTH 7 0
BBX 5 14 1 -2
VVECTOR 4 13
SWIDTH1 0 -1000
DWIDTH1 0 -16
BITMAP 
F8
C0
C0
C0
C0
C0
C0
C0
C0
C0
C0
C0
C0
F8
ENDCHAR
STARTCHAR char5C
ENCODING 92
SWIDTH 438 0
DWIDTH 7 0
BBX 6 10 0 0
VVECTOR 3 13
SWIDTH1 0 -1000
DWIDTH1 0 -16
BITMAP 
C0
C0
60
60
30
30
18
18
0C
0C
ENDCHAR
STARTCHAR char5D
ENCODING 93
SWIDTH 438 0
DWIDTH 7 0
BBX 5 14 1 -2
VVECTOR 4 13
SWIDTH1 0 -1000
DWIDTH1 0 -16
BITMAP 
F8
18
18
18
18
18
18
18
18
18
18
18
18
F8
ENDCHAR
STARTCHAR char5E
ENCODING 94
SWIDTH 688 0
DWIDTH 11 0
BBX 7 3 2 10
VVECTOR 6 13
SWIDTH1 0 -1000
DWIDTH1 0 -16
BITMAP 
38
6C
C6
ENDCHAR
STARTCHAR char5F
ENCODING 95
SWIDTH 1000 0
DWIDTH 16 0
BBX 16 1 0 -3
VVECTOR 8 13
SWIDTH1 0 -1000
DWIDTH1 0 -16
BITMAP 
FFFF
ENDCHAR
STARTCHAR char60
ENCODING 96
SWIDTH 688 0
DWIDTH 11 0
BBX 4 3 3 10
VVECTOR 5 13
SWIDTH1 0 -1000
DWIDTH1 0 -16
BITMAP 
C0
60
30
ENDCHAR
STARTCHAR char61
ENCODING 97
SWIDTH 625 0
DWIDTH 10 0
BBX 8 7 1 0
VVECTOR 5 13
SWIDTH1 0 -1000
DWIDTH1 0 -16
BITMAP 
7E
03
7F
C3
C3
C7
7B
ENDCHAR
STARTCHAR char62
ENCODING 98
SWIDTH 625 0
DWIDTH 10 0
BBX 8 10 1 0
VVECTOR 5 13
SWIDTH1 0 -1000
DWIDTH1 0 -16
BITMAP 
C0
C0
C0
DE
E3
C3
C3
C3
E3
DE
ENDCHAR
STARTCHAR char63
ENCODING 99
SWIDTH 625 0
DWIDTH 10 0
BBX 8 7 1 0
VVECTOR 5 13
SWIDTH1 0 -1000
DWIDTH1 0 -16
BITMAP 
7E
C3
C0
C0
C0
C3
7E
ENDCHAR
STARTCHAR char64
ENCODING 100
SWIDTH 625 0
DWIDTH 10 0
BBX 8 10 1 0
VVECTOR 5 13
SWIDTH1 0 -1000
DWIDTH1 0 -16
BITMAP 
03
03
03
7B
C7
C3
C3
C3
C7
7B
ENDCHAR
STARTCHAR char65
ENCODING 101
SWIDTH 625 0
DWIDTH 10 0
BBX 8 7 1 0
VVECTOR 5 13
SWIDTH1 0 -1000
DWIDTH1 0 -16
BITMAP 
7E
C3
C3
FF
C0
C3
7E
ENDCHAR
STARTCHAR char66
ENCODING 102
SWIDTH 375 0
DWIDTH 6 0
BBX 4 10 1 0
VVECTOR 3 13
SWIDTH1 0 -1000
DWIDTH1 0 -16
BITMAP 
30
60
60
F0
60
60
60
60
60
60
ENDCHAR
STARTCHAR char67
ENCODING 103
SWIDTH 625 0
DWIDTH 10 0
BBX 8 10 1 -3
VVECTOR 5 13
SWIDTH1 0 -1000
DWIDTH1 0 -16
BITMAP 
7B
C7
C3
C3
C3
C7
7B
03
C3
7E
ENDCHAR
STARTCHAR char68
ENCODING 104
SWIDTH 625 0
DWIDTH 10 0
BBX 8 10 1 0
VVECTOR 5 13
SWIDTH1 0 -1000
DWIDTH1 0 -16
BITMAP 
C0
C0
C0
DE
E3
C3
C3
C3
C3
C3
ENDCHAR
STARTCHAR char69
ENCODING 105
SWIDTH 375 0
DWIDTH 6 0
BBX 2 10 2 0
VVECTOR 3 13
SWIDTH1 0 -1000
DWIDTH1 0 -16
BITMAP 
C0
00
00
C0
C0
C0
C0
C0
C0
C0
ENDCHAR
STARTCHAR char6A
ENCODING 106
SWIDTH 375 0
DWIDTH 6 0
BBX 4 13 0 -3
VVECTOR 2 13
SWIDTH1 0 -1000
DWIDTH1 0 -16
BITMAP 
30
00
00
30
30
30
30
30
30
30
30
30
E0
ENDCHAR
STARTCHAR char6B
ENCODING 107
SWIDTH 562 0
DWIDTH 9 0
BBX 7 10 1 0
VVECTOR 5 13
SWIDTH1 0 -1000
DWIDTH1 0 -16
BITMAP 
C0
C0
C0
C6
CC
D8
F0
D8
CC
C6
ENDCHAR
STARTCHAR char6C
ENCODING 108
SWIDTH 375 0
DWIDTH 6 0
BBX 2 10 2 0
VVECTOR 3 13
SWIDTH1 0 -1000
DWIDTH1 0 -16
BITMAP 
C0
C0
C0
C0
C0
C0
C0
C0
C0
C0
ENDCHAR
STARTCHAR char6D
ENCODING 109
SWIDTH 1000 0
DWIDTH 16 0
BBX 14 7 1 0
VVECTOR 8 13
SWIDTH1 0 -1000
DWIDTH1 0 -16
BITMAP 
DEF8
E38C
C30C
C30C
C30C
C30C
C30C
ENDCHAR
STARTCHAR char6E
ENCODING 110
SWIDTH 625 0
DWIDTH 10 0
BBX 8 7 1 0
VVECTOR 5 13
SWIDTH1 0 -1000
DWIDTH1 0 -16
BITMAP 
DE
E3
C3
C3
C3
C3
C3
ENDCHAR
STARTCHAR char6F
ENCODING 111
SWIDTH 625 0
DWIDTH 10 0
BBX 8 7 1 0
VVECTOR 5 13
SWIDTH1 0 -1000
DWIDTH1 0 -16
BITMAP 
7E
C3
C3
C3
C3
C3
7E
ENDCHAR
STARTCHAR char70
ENCODING 112
SWIDTH 625 0
DWIDTH 10 0
BBX 8 10 1 -3
VVECTOR 5 13
SWIDTH1 0 -1000
DWIDTH1 0 -16
BITMAP 
DE
E3
C3
C3
C3
E3
DE
C0
C0
C0
ENDCHAR
STARTCHAR char71
ENCODING 113
SWIDTH 625 0
DWIDTH 10 0
BBX 8 10 1 -3
VVECTOR 5 13
SWIDTH1 0 -1000
DWIDTH1 0 -16
BITMAP 
7B
C7
C3
C3
C3
C7
7B
03
03
03
ENDCHAR
STARTCHAR char72
ENCODING 114
SWIDTH 438 0
DWIDTH 7 0
BBX 6 7 1 0
VVECTOR 4 13
SWIDTH1 0 -1000
DWIDTH1 0 -16
BITMAP 
DC
E0
C0
C0
C0
C0
C0
ENDCHAR
STARTCHAR char73
ENCODING 115
SWIDTH 562 0
DWIDTH 9 0
BBX 7 7 1 0
VVECTOR 5 13
SWIDTH1 0 -1000
DWIDTH1 0 -16
BITMAP 
7C
C6
C0
7C
06
C6
7C
ENDCHAR
STARTCHAR char74
ENCODING 116
SWIDTH 375 0
DWIDTH 6 0
BBX 4 10 1 0
VVECTOR 3 13
SWIDTH1 0 -1000
DWIDTH1 0 -16
BITMAP 
60
60
60
F0
60
60
60
60
60
30
ENDCHAR
STARTCHAR char75
ENCODING 117
SWIDTH 625 0
DWIDTH 10 0
BBX 8 7 1 0
VVECTOR 5 13
SWIDTH1 0 -1000
DWIDTH1 0 -16
BITMAP 
C3
C3
C3
C3
C3
C7
7B
ENDCHAR
STARTCHAR char76
ENCODING 118
SWIDTH 688 0
DWIDTH 11 0
BBX 9 7 1 0
VVECTOR 6 13
SWIDTH1 0 -1000
DWIDTH1 0 -16
BITMAP 
C180
C180
6300
6300
3600
3600
1C00
ENDCHAR
STARTCHAR char77
ENCODING 119
SWIDTH 938 0
DWIDTH 15 0
BBX 13 7 1 0
VVECTOR 8 13
SWIDTH1 0 -1000
DWIDTH1 0 -16
BITMAP 
C018
C018
C718
6DB0
6DB0
38E0
3060
ENDCHAR
STARTCHAR char78
ENCODING 120
SWIDTH 625 0
DWIDTH 10 0
BBX 8 7 1 0
VVECTOR 5 13
SWIDTH1 0 -1000
DWIDTH1 0 -16
BITMAP 
C3
66
3C
18
3C
66
C3
ENDCHAR
STARTCHAR char79
ENCODING 121
SWIDTH 688 0
DWIDTH 11 0
BBX 9 10 1 -3
VVECTOR 6 13
SWIDTH1 0 -1000
DWIDTH1 0 -16
BITMAP 
C180
C180
6300
6300
3600
3600
1C00
0C00
1800
F000
ENDCHAR
STARTCHAR char7A
ENCODING 122
SWIDTH 562 0
DWIDTH 9 0
BBX 7 7 1 0
VVECTOR 5 13
SWIDTH1 0 -1000
DWIDTH1 0 -16
BITMAP 
FE
0C
18
30
60
C0
FE
ENDCHAR
STARTCHAR char7B
ENCODING 123
SWIDTH 438 0
DWIDTH 7 0
BBX 6 14 0 -2
VVECTOR 3 13
SWIDTH1 0 -1000
DWIDTH1 0 -16
BITMAP 
1C
30
30
30
30
30
E0
30
30
30
30
30
30
1C
ENDCHAR
STARTCHAR char7C
ENCODING 124
SWIDTH 250 0
DWIDTH 4 0
BBX 2 14 1 -2
VVECTOR 2 13
SWIDTH1 0 -1000
DWIDTH1 0 -16
BITMAP 
C0
C0
C0
C0
C0
C0
C0
C0
C0
C0
C0
C0
C0
C0
ENDCHAR
STARTCHAR char7D
ENCODING 125
SWIDTH 438 0
DWIDTH 7 0
BBX 6 14 1 -2
VVECTOR 4 13
SWIDTH1 0 -1000
DWIDTH1 0 -16
BITMAP 
E0
30
30
30
30
30
1C
30
30
30
30
30
30
E0
ENDCHAR
STARTCHAR char7E
ENCODING 126
SWIDTH 688 0
DWIDTH 11 0
BBX 7 2 2 11
VVECTOR 6 13
SWIDTH1 0 -1000
DWIDTH1 0 -16
BITMAP 
72
9C
ENDCHAR
STARTCHAR char7F
ENCODING 127
SWIDTH 188 0
DWIDTH 3 0
BBX 0 0 0 -3
VVECTOR 0 -3
SWIDTH1 0 0
DWIDTH1 0 0
BITMAP 
ENDCHAR
STARTCHAR char80
ENCODING 128
SWIDTH 812 0
DWIDTH 13 0
BBX 11 13 1 0
VVECTOR 7 13
SWIDTH1 0 -1000
DWIDTH1 0 -16
BITMAP 
3180
0000
0000
0E00
1B00
1B00
3180
3180
60C0
7FC0
60C0
C060
C060
ENDCHAR
STARTCHAR char81
ENCODING 129
SWIDTH 812 0
DWIDTH 13 0
BBX 11 13 1 0
VVECTOR 7 13
SWIDTH1 0 -1000
DWIDTH1 0 -16
BITMAP 
0E00
1100
1100
0E00
1B00
1B00
3180
3180
60C0
7FC0
60C0
C060
C060
ENDCHAR
STARTCHAR char82
ENCODING 130
SWIDTH 812 0
DWIDTH 13 0
BBX 11 13 1 -3
VVECTOR 7 13
SWIDTH1 0 -1000
DWIDTH1 0 -16
BITMAP 
1F00
60C0
C060
C060
C000
C000
C060
C060
60C0
1F00
0600
0200
0C00
ENDCHAR
STARTCHAR char83
ENCODING 131
SWIDTH 688 0
DWIDTH 11 0
BBX 8 13 2 0
VVECTOR 6 13
SWIDTH1 0 -1000
DWIDTH1 0 -16
BITMAP 
0C
18
00
FF
C0
C0
C0
FE
C0
C0
C0
C0
FF
ENDCHAR
STARTCHAR char84
ENCODING 132
SWIDTH 875 0
DWIDTH 14 0
BBX 10 13 2 0
VVECTOR 7 13
SWIDTH1 0 -1000
DWIDTH1 0 -16
BITMAP 
1C80
2700
0000
C0C0
E0C0
F0C0
D8C0
CCC0
C6C0
C3C0
C1C0
C0C0
C040
ENDCHAR
STARTCHAR char85
ENCODING 133
SWIDTH 875 0
DWIDTH 14 0
BBX 12 13 1 0
VVECTOR 7 13
SWIDTH1 0 -1000
DWIDTH1 0 -16
BITMAP 
1980
0000
0000
1F80
6060
C030
C030
C030
C030
C030
C030
6060
1F80
ENDCHAR
STARTCHAR char86
ENCODING 134
SWIDTH 812 0
DWIDTH 13 0
BBX 11 13 1 0
VVECTOR 7 13
SWIDTH1 0 -1000
DWIDTH1 0 -16
BITMAP 
3180
0000
0000
C060
C060
C060
C060
C060
C060
C060
C060
60C0
1F00
ENDCHAR
STARTCHAR char87
ENCODING 135
SWIDTH 625 0
DWIDTH 10 0
BBX 8 11 1 0
VVECTOR 5 13
SWIDTH1 0 -1000
DWIDTH1 0 -16
BITMAP 
0C
18
00
00
7E
03
7F
C3
C3
C7
7B
ENDCHAR
STARTCHAR char88
ENCODING 136
SWIDTH 625 0
DWIDTH 10 0
BBX 8 11 1 0
VVECTOR 5 13
SWIDTH1 0 -1000
DWIDTH1 0 -16
BITMAP 
30
18
00
00
7E
03
7F
C3
C3
C7
7B
ENDCHAR
STARTCHAR char89
ENCODING 137
SWIDTH 625 0
DWIDTH 10 0
BBX 8 12 1 0
VVECTOR 5 13
SWIDTH1 0 -1000
DWIDTH1 0 -16
BITMAP 
18
3C
66
00
00
7E
03
7F
C3
C3
C7
7B
ENDCHAR
STARTCHAR char8A
ENCODING 138
SWIDTH 625 0
DWIDTH 10 0
BBX 8 10 1 0
VVECTOR 5 13
SWIDTH1 0 -1000
DWIDTH1 0 -16
BITMAP 
66
00
00
7E
03
7F
C3
C3
C7
7B
ENDCHAR
STARTCHAR char8B
ENCODING 139
SWIDTH 625 0
DWIDTH 10 0
BBX 8 11 1 0
VVECTOR 5 13
SWIDTH1 0 -1000
DWIDTH1 0 -16
BITMAP 
39
4E
00
00
7E
03
7F
C3
C3
C7
7B
ENDCHAR
STARTCHAR char8C
ENCODING 140
SWIDTH 625 0
DWIDTH 10 0
BBX 8 11 1 0
VVECTOR 5 13
SWIDTH1 0 -1000
DWIDTH1 0 -16
BITMAP 
18
24
18
00
7E
03
7F
C3
C3
C7
7B
ENDCHAR
STARTCHAR char8D
ENCODING 141
SWIDTH 625 0
DWIDTH 10 0
BBX 8 10 1 -3
VVECTOR 5 13
SWIDTH1 0 -1000
DWIDTH1 0 -16
BITMAP 
7E
C3
C0
C0
C0
C3
7E
18
04
38
ENDCHAR
STARTCHAR char8E
ENCODING 142
SWIDTH 625 0
DWIDTH 10 0
BBX 8 11 1 0
VVECTOR 5 13
SWIDTH1 0 -1000
DWIDTH1 0 -16
BITMAP 
0C
18
00
00
7E
C3
C3
FF
C0
C3
7E
ENDCHAR
STARTCHAR char8F
ENCODING 143
SWIDTH 625 0
DWIDTH 10 0
BBX 8 11 1 0
VVECTOR 5 13
SWIDTH1 0 -1000
DWIDTH1 0 -16
BITMAP 
30
18
00
00
7E
C3
C3
FF
C0
C3
7E
ENDCHAR
STARTCHAR char90
ENCODING 144
SWIDTH 625 0
DWIDTH 10 0
BBX 8 12 1 0
VVECTOR 5 13
SWIDTH1 0 -1000
DWIDTH1 0 -16
BITMAP 
18
3C
66
00
00
7E
C3
C3
FF
C0
C3
7E
ENDCHAR
STARTCHAR char91
ENCODING 145
SWIDTH 625 0
DWIDTH 10 0
BBX 8 10 1 0
VVECTOR 5 13
SWIDTH1 0 -1000
DWIDTH1 0 -16
BITMAP 
66
00
00
7E
C3
C3
FF
C0
C3
7E
ENDCHAR
STARTCHAR char92
ENCODING 146
SWIDTH 375 0
DWIDTH 6 0
BBX 3 11 2 0
VVECTOR 4 13
SWIDTH1 0 -1000
DWIDTH1 0 -16
BITMAP 
60
C0
00
00
C0
C0
C0
C0
C0
C0
C0
ENDCHAR
STARTCHAR char93
ENCODING 147
SWIDTH 375 0
DWIDTH 6 0
BBX 3 11 1 0
VVECTOR 3 13
SWIDTH1 0 -1000
DWIDTH1 0 -16
BITMAP 
C0
60
00
00
60
60
60
60
60
60
60
ENDCHAR
STARTCHAR char94
ENCODING 148
SWIDTH 375 0
DWIDTH 6 0
BBX 6 12 0 0
VVECTOR 3 13
SWIDTH1 0 -1000
DWIDTH1 0 -16
BITMAP 
30
78
CC
00
00
30
30
30
30
30
30
30
ENDCHAR
STARTCHAR char95
ENCODING 149
SWIDTH 375 0
DWIDTH 6 0
BBX 6 10 0 0
VVECTOR 3 13
SWIDTH1 0 -1000
DWIDTH1 0 -16
BITMAP 
CC
00
00
30
30
30
30
30
30
30
ENDCHAR
STARTCHAR char96
ENCODING 150
SWIDTH 625 0
DWIDTH 10 0
BBX 8 11 1 0
VVECTOR 5 13
SWIDTH1 0 -1000
DWIDTH1 0 -16
BITMAP 
72
9C
00
00
DE
E3
C3
C3
C3
C3
C3
ENDCHAR
STARTCHAR char97
ENCODING 151
SWIDTH 625 0
DWIDTH 10 0
BBX 8 11 1 0
VVECTOR 5 13
SWIDTH1 0 -1000
DWIDTH1 0 -16
BITMAP 
0C
18
00
00
7E
C3
C3
C3
C3
C3
7E
ENDCHAR
STARTCHAR char98
ENCODING 152
SWIDTH 625 0
DWIDTH 10 0
BBX 8 11 1 0
VVECTOR 5 13
SWIDTH1 0 -1000
DWIDTH1 0 -16
BITMAP 
30
18
00
00
7E
C3
C3
C3
C3
C3
7E
ENDCHAR
STARTCHAR char99
ENCODING 153
SWIDTH 625 0
DWIDTH 10 0
BBX 8 12 1 0
VVECTOR 5 13
SWIDTH1 0 -1000
DWIDTH1 0 -16
BITMAP 
18
3C
66
00
00
7E
C3
C3
C3
C3
C3
7E
ENDCHAR
STARTCHAR char9A
ENCODING 154
SWIDTH 625 0
DWIDTH 10 0
BBX 8 10 1 0
VVECTOR 5 13
SWIDTH1 0 -1000
DWIDTH1 0 -16
BITMAP 
66
00
00
7E
C3
C3
C3
C3
C3
7E
ENDCHAR
STARTCHAR char9B
ENCODING 155
SWIDTH 625 0
DWIDTH 10 0
BBX 8 11 1 0
VVECTOR 5 13
SWIDTH1 0 -1000
DWIDTH1 0 -16
BITMAP 
39
4E
00
00
7E
C3
C3
C3
C3
C3
7E
ENDCHAR
STARTCHAR char9C
ENCODING 156
SWIDTH 625 0
DWIDTH 10 0
BBX 8 11 1 0
VVECTOR 5 13
SWIDTH1 0 -1000
DWIDTH1 0 -16
BITMAP 
0C
18
00
00
C3
C3
C3
C3
C3
C7
7B
ENDCHAR
STARTCHAR char9D
ENCODING 157
SWIDTH 625 0
DWIDTH 10 0
BBX 8 11 1 0
VVECTOR 5 13
SWIDTH1 0 -1000
DWIDTH1 0 -16
BITMAP 
30
18
00
00
C3
C3
C3
C3
C3
C7
7B
ENDCHAR
STARTCHAR char9E
ENCODING 158
SWIDTH 625 0
DWIDTH 10 0
BBX 8 12 1 0
VVECTOR 5 13
SWIDTH1 0 -1000
DWIDTH1 0 -16
BITMAP 
18
3C
66
00
00
C3
C3
C3
C3
C3
C7
7B
ENDCHAR
STARTCHAR char9F
ENCODING 159
SWIDTH 625 0
DWIDTH 10 0
BBX 8 10 1 0
VVECTOR 5 13
SWIDTH1 0 -1000
DWIDTH1 0 -16
BITMAP 
66
00
00
C3
C3
C3
C3
C3
C7
7B
ENDCHAR
STARTCHAR charA0
ENCODING 160
SWIDTH 688 0
DWIDTH 11 0
BBX 9 11 1 -1
VVECTOR 6 13
SWIDTH1 0 -1000
DWIDTH1 0 -16
BITMAP 
0800
0800
FF80
0800
0800
0800
0800
0800
0800
0800
0800
ENDCHAR
STARTCHAR charA1
ENCODING 161
SWIDTH 438 0
DWIDTH 7 0
BBX 5 4 1 6
VVECTOR 4 13
SWIDTH1 0 -1000
DWIDTH1 0 -16
BITMAP 
70
D8
D8
70
ENDCHAR
STARTCHAR charA2
ENCODING 162
SWIDTH 688 0
DWIDTH 11 0
BBX 7 10 2 0
VVECTOR 6 13
SWIDTH1 0 -1000
DWIDTH1 0 -16
BITMAP 
10
10
7C
C6
C0
C0
C6
7C
10
10
ENDCHAR
STARTCHAR charA3
ENCODING 163
SWIDTH 688 0
DWIDTH 11 0
BBX 9 10 1 0
VVECTOR 6 13
SWIDTH1 0 -1000
DWIDTH1 0 -16
BITMAP 
1E00
3300
3000
3000
FC00
3000
3000
3000
3180
FF00
ENDCHAR
STARTCHAR charA4
ENCODING 164
SWIDTH 438 0
DWIDTH 7 0
BBX 5 12 1 -2
VVECTOR 4 13
SWIDTH1 0 -1000
DWIDTH1 0 -16
BITMAP 
70
80
80
60
90
88
88
48
30
08
08
70
ENDCHAR
STARTCHAR charA5
ENCODING 165
SWIDTH 438 0
DWIDTH 7 0
BBX 5 4 1 3
VVECTOR 4 13
SWIDTH1 0 -1000
DWIDTH1 0 -16
BITMAP 
F8
F8
F8
F8
ENDCHAR
STARTCHAR charA6
ENCODING 166
SWIDTH 688 0
DWIDTH 11 0
BBX 9 11 1 -1
VVECTOR 6 13
SWIDTH1 0 -1000
DWIDTH1 0 -16
BITMAP 
7380
9200
9200
9200
7200
1200
1200
1200
1200
1200
1200
ENDCHAR
STARTCHAR charA7
ENCODING 167
SWIDTH 688 0
DWIDTH 11 0
BBX 8 10 2 0
VVECTOR 6 13
SWIDTH1 0 -1000
DWIDTH1 0 -16
BITMAP 
7E
C3
C3
C3
CE
C3
C3
C3
C3
DE
ENDCHAR
STARTCHAR charA8
ENCODING 168
SWIDTH 1000 0
DWIDTH 16 0
BBX 14 10 1 0
VVECTOR 8 13
SWIDTH1 0 -1000
DWIDTH1 0 -16
BITMAP 
1FE0
6018
CF8C
CCCC
CCCC
CF8C
CCCC
CCCC
6018
1FE0
ENDCHAR
STARTCHAR charA9
ENCODING 169
SWIDTH 1000 0
DWIDTH 16 0
BBX 14 10 1 0
VVECTOR 8 13
SWIDTH1 0 -1000
DWIDTH1 0 -16
BITMAP 
1FE0
6018
C78C
CCCC
CC0C
CC0C
CCCC
C78C
6018
1FE0
ENDCHAR
STARTCHAR charAA
ENCODING 170
SWIDTH 688 0
DWIDTH 11 0
BBX 9 3 1 7
VVECTOR 6 13
SWIDTH1 0 -1000
DWIDTH1 0 -16
BITMAP 
E880
4D80
4A80
ENDCHAR
STARTCHAR charAB
ENCODING 171
SWIDTH 688 0
DWIDTH 11 0
BBX 3 2 4 11
VVECTOR 6 13
SWIDTH1 0 -1000
DWIDTH1 0 -16
BITMAP 
60
C0
ENDCHAR
STARTCHAR charAC
ENCODING 172
SWIDTH 688 0
DWIDTH 11 0
BBX 7 1 2 12
VVECTOR 6 13
SWIDTH1 0 -1000
DWIDTH1 0 -16
BITMAP 
C6
ENDCHAR
STARTCHAR charAD
ENCODING 173
SWIDTH 1000 0
DWIDTH 16 0
BBX 12 7 2 2
VVECTOR 8 13
SWIDTH1 0 -1000
DWIDTH1 0 -16
BITMAP 
0300
0300
FFF0
0600
FFF0
0C00
0C00
ENDCHAR
STARTCHAR charAE
ENCODING 174
SWIDTH 1188 0
DWIDTH 19 0
BBX 16 10 1 0
VVECTOR 9 13
SWIDTH1 0 -1000
DWIDTH1 0 -16
BITMAP 
0FFF
18C0
18C0
30C0
30FE
7FC0
60C0
60C0
C0C0
C0FF
ENDCHAR
STARTCHAR charAF
ENCODING 175
SWIDTH 875 0
DWIDTH 14 0
BBX 12 10 1 0
VVECTOR 7 13
SWIDTH1 0 -1000
DWIDTH1 0 -16
BITMAP 
1F90
6060
C0B0
C130
C230
C430
C830
D030
6060
9F80
ENDCHAR
STARTCHAR charB0
ENCODING 176
SWIDTH 1000 0
DWIDTH 16 0
BBX 12 5 2 3
VVECTOR 8 13
SWIDTH1 0 -1000
DWIDTH1 0 -16
BITMAP 
7DE0
C330
C630
CC30
7BE0
ENDCHAR
STARTCHAR charB1
ENCODING 177
SWIDTH 1000 0
DWIDTH 16 0
BBX 12 9 2 0
VVECTOR 8 13
SWIDTH1 0 -1000
DWIDTH1 0 -16
BITMAP 
0600
0600
0600
FFF0
0600
0600
0600
0000
FFF0
ENDCHAR
STARTCHAR charB2
ENCODING 178
SWIDTH 688 0
DWIDTH 11 0
BBX 8 9 1 0
VVECTOR 5 13
SWIDTH1 0 -1000
DWIDTH1 0 -16
BITMAP 
0C
18
30
60
30
18
0C
00
FF
ENDCHAR
STARTCHAR charB3
ENCODING 179
SWIDTH 688 0
DWIDTH 11 0
BBX 8 9 2 0
VVECTOR 6 13
SWIDTH1 0 -1000
DWIDTH1 0 -16
BITMAP 
30
18
0C
06
0C
18
30
00
FF
ENDCHAR
STARTCHAR charB4
ENCODING 180
SWIDTH 750 0
DWIDTH 12 0
BBX 10 10 1 0
VVECTOR 6 13
SWIDTH1 0 -1000
DWIDTH1 0 -16
BITMAP 
C0C0
6180
3300
1E00
0C00
7F80
0C00
7F80
0C00
0C00
ENDCHAR
STARTCHAR charB5
ENCODING 181
SWIDTH 688 0
DWIDTH 11 0
BBX 9 9 1 -2
VVECTOR 6 13
SWIDTH1 0 -1000
DWIDTH1 0 -16
BITMAP 
C600
C600
C600
C600
C600
C600
FB80
C000
C000
ENDCHAR
STARTCHAR charB6
ENCODING 182
SWIDTH 688 0
DWIDTH 11 0
BBX 8 10 1 0
VVECTOR 5 13
SWIDTH1 0 -1000
DWIDTH1 0 -16
BITMAP 
1E
03
03
7F
C3
C3
C3
C3
C3
7E
ENDCHAR
STARTCHAR charB7
ENCODING 183
SWIDTH 1000 0
DWIDTH 16 0
BBX 13 14 1 -2
VVECTOR 8 13
SWIDTH1 0 -1000
DWIDTH1 0 -16
BITMAP 
FFE0
6030
3018
1800
0C00
0600
0300
0300
0600
0C00
1800
3018
6030
FFE0
ENDCHAR
STARTCHAR charB8
ENCODING 184
SWIDTH 1000 0
DWIDTH 16 0
BBX 13 10 1 0
VVECTOR 8 13
SWIDTH1 0 -1000
DWIDTH1 0 -16
BITMAP 
FFF8
18C0
18C0
18C0
18C0
18C0
18C0
18C0
18C0
18C0
ENDCHAR
STARTCHAR charB9
ENCODING 185
SWIDTH 1000 0
DWIDTH 16 0
BBX 13 8 1 0
VVECTOR 8 13
SWIDTH1 0 -1000
DWIDTH1 0 -16
BITMAP 
0008
7FF0
98C0
18C0
18C0
18C0
18C0
18C0
ENDCHAR
STARTCHAR charBA
ENCODING 186
SWIDTH 438 0
DWIDTH 7 0
BBX 6 14 0 -2
VVECTOR 3 13
SWIDTH1 0 -1000
DWIDTH1 0 -16
BITMAP 
1C
30
30
30
30
30
30
30
30
30
30
30
30
E0
ENDCHAR
STARTCHAR charBB
ENCODING 187
SWIDTH 625 0
DWIDTH 10 0
BBX 8 9 1 1
VVECTOR 5 13
SWIDTH1 0 -1000
DWIDTH1 0 -16
BITMAP 
7E
03
7F
C3
C3
C7
7B
00
FF
ENDCHAR
STARTCHAR charBC
ENCODING 188
SWIDTH 625 0
DWIDTH 10 0
BBX 8 9 1 1
VVECTOR 5 13
SWIDTH1 0 -1000
DWIDTH1 0 -16
BITMAP 
7E
C3
C3
C3
C3
C3
7E
00
FF
ENDCHAR
STARTCHAR charBD
ENCODING 189
SWIDTH 1000 0
DWIDTH 16 0
BBX 14 10 1 0
VVECTOR 8 13
SWIDTH1 0 -1000
DWIDTH1 0 -16
BITMAP 
0FC0
3030
6018
6018
6018
6018
3030
1860
8CC4
7CF8
ENDCHAR
STARTCHAR charBE
ENCODING 190
SWIDTH 1000 0
DWIDTH 16 0
BBX 14 7 1 0
VVECTOR 8 13
SWIDTH1 0 -1000
DWIDTH1 0 -16
BITMAP 
7DF8
030C
7F0C
C3FC
C300
C70C
79F8
ENDCHAR
STARTCHAR charBF
ENCODING 191
SWIDTH 625 0
DWIDTH 10 0
BBX 8 7 1 0
VVECTOR 5 13
SWIDTH1 0 -1000
DWIDTH1 0 -16
BITMAP 
7E
C3
C7
CB
D3
E3
7E
ENDCHAR
STARTCHAR charC0
ENCODING 192
SWIDTH 688 0
DWIDTH 11 0
BBX 8 10 2 0
VVECTOR 6 13
SWIDTH1 0 -1000
DWIDTH1 0 -16
BITMAP 
18
00
00
18
18
30
60
C3
C3
7E
ENDCHAR
STARTCHAR charC1
ENCODING 193
SWIDTH 438 0
DWIDTH 7 0
BBX 2 10 2 0
VVECTOR 3 13
SWIDTH1 0 -1000
DWIDTH1 0 -16
BITMAP 
C0
00
00
C0
C0
C0
C0
C0
C0
C0
ENDCHAR
STARTCHAR charC2
ENCODING 194
SWIDTH 1000 0
DWIDTH 16 0
BBX 12 4 2 2
VVECTOR 8 13
SWIDTH1 0 -1000
DWIDTH1 0 -16
BITMAP 
FFF0
0030
0030
0030
ENDCHAR
STARTCHAR charC3
ENCODING 195
SWIDTH 1000 0
DWIDTH 16 0
BBX 14 14 1 -2
VVECTOR 8 13
SWIDTH1 0 -1000
DWIDTH1 0 -16
BITMAP 
003C
0030
0060
0060
00C0
00C0
0180
0180
0300
0300
0600
F600
1C00
0C00
ENDCHAR
STARTCHAR charC4
ENCODING 196
SWIDTH 688 0
DWIDTH 11 0
BBX 10 12 0 -2
VVECTOR 5 13
SWIDTH1 0 -1000
DWIDTH1 0 -16
BITMAP 
0780
0CC0
0C00
0C00
3F00
0C00
0C00
0C00
0C00
0C00
CC00
7800
ENDCHAR
STARTCHAR charC5
ENCODING 197
SWIDTH 1000 0
DWIDTH 16 0
BBX 12 5 2 3
VVECTOR 8 13
SWIDTH1 0 -1000
DWIDTH1 0 -16
BITMAP 
7C10
83E0
0000
7C10
83E0
ENDCHAR
STARTCHAR charC6
ENCODING 198
SWIDTH 1000 0
DWIDTH 16 0
BBX 14 10 1 0
VVECTOR 8 13
SWIDTH1 0 -1000
DWIDTH1 0 -16
BITMAP 
0300
0580
08C0
08C0
1060
2030
2030
4018
800C
FFFC
ENDCHAR
STARTCHAR charC7
ENCODING 199
SWIDTH 688 0
DWIDTH 11 0
BBX 9 5 1 2
VVECTOR 6 13
SWIDTH1 0 -1000
DWIDTH1 0 -16
BITMAP 
3180
6300
C600
6300
3180
ENDCHAR
STARTCHAR charC8
ENCODING 200
SWIDTH 688 0
DWIDTH 11 0
BBX 9 5 1 2
VVECTOR 6 13
SWIDTH1 0 -1000
DWIDTH1 0 -16
BITMAP 
C600
6300
3180
6300
C600
ENDCHAR
STARTCHAR charC9
ENCODING 201
SWIDTH 1000 0
DWIDTH 16 0
BBX 14 1 1 0
VVECTOR 8 13
SWIDTH1 0 -1000
DWIDTH1 0 -16
BITMAP 
C30C
ENDCHAR
STARTCHAR charCA
ENCODING 202
SWIDTH 375 0
DWIDTH 6 0
BBX 0 0 0 -3
VVECTOR 0 -3
SWIDTH1 0 0
DWIDTH1 0 0
BITMAP 
ENDCHAR
STARTCHAR charCB
ENCODING 203
SWIDTH 812 0
DWIDTH 13 0
BBX 11 13 1 0
VVECTOR 7 13
SWIDTH1 0 -1000
DWIDTH1 0 -16
BITMAP 
0300
0600
0000
0E00
1B00
1B00
3180
3180
60C0
7FC0
60C0
C060
C060
ENDCHAR
STARTCHAR charCC
ENCODING 204
SWIDTH 812 0
DWIDTH 13 0
BBX 11 13 1 0
VVECTOR 7 13
SWIDTH1 0 -1000
DWIDTH1 0 -16
BITMAP 
1C80
2700
0000
0E00
1B00
1B00
3180
3180
60C0
7FC0
60C0
C060
C060
ENDCHAR
STARTCHAR charCD
ENCODING 205
SWIDTH 875 0
DWIDTH 14 0
BBX 12 13 1 0
VVECTOR 7 13
SWIDTH1 0 -1000
DWIDTH1 0 -16
BITMAP 
0E40
1380
0000
1F80
6060
C030
C030
C030
C030
C030
C030
6060
1F80
ENDCHAR
STARTCHAR charCE
ENCODING 206
SWIDTH 1375 0
DWIDTH 22 0
BBX 20 10 1 0
VVECTOR 11 13
SWIDTH1 0 -1000
DWIDTH1 0 -16
BITMAP 
1FBFF0
607000
C03000
C03000
C03FE0
C03000
C03000
C03000
607000
1FBFF0
ENDCHAR
STARTCHAR charCF
ENCODING 207
SWIDTH 1000 0
DWIDTH 16 0
BBX 14 7 1 0
VVECTOR 8 13
SWIDTH1 0 -1000
DWIDTH1 0 -16
BITMAP 
7EF8
C30C
C30C
C3FC
C300
C30C
7DF8
ENDCHAR
STARTCHAR charD0
ENCODING 208
SWIDTH 375 0
DWIDTH 6 0
BBX 4 1 1 5
VVECTOR 3 13
SWIDTH1 0 -1000
DWIDTH1 0 -16
BITMAP 
F0
ENDCHAR
STARTCHAR charD1
ENCODING 209
SWIDTH 1000 0
DWIDTH 16 0
BBX 16 1 0 5
VVECTOR 8 13
SWIDTH1 0 -1000
DWIDTH1 0 -16
BITMAP 
FFFF
ENDCHAR
STARTCHAR charD2
ENCODING 210
SWIDTH 562 0
DWIDTH 9 0
BBX 7 4 1 6
VVECTOR 5 13
SWIDTH1 0 -1000
DWIDTH1 0 -16
BITMAP 
66
CC
CC
CC
ENDCHAR
STARTCHAR charD3
ENCODING 211
SWIDTH 562 0
DWIDTH 9 0
BBX 7 4 1 6
VVECTOR 5 13
SWIDTH1 0 -1000
DWIDTH1 0 -16
BITMAP 
66
66
66
CC
ENDCHAR
STARTCHAR charD4
ENCODING 212
SWIDTH 438 0
DWIDTH 7 0
BBX 3 4 2 6
VVECTOR 4 13
SWIDTH1 0 -1000
DWIDTH1 0 -16
BITMAP 
60
C0
C0
C0
ENDCHAR
STARTCHAR charD5
ENCODING 213
SWIDTH 438 0
DWIDTH 7 0
BBX 3 4 2 6
VVECTOR 4 13
SWIDTH1 0 -1000
DWIDTH1 0 -16
BITMAP 
60
60
60
C0
ENDCHAR
STARTCHAR charD6
ENCODING 214
SWIDTH 1000 0
DWIDTH 16 0
BBX 12 9 2 1
VVECTOR 8 13
SWIDTH1 0 -1000
DWIDTH1 0 -16
BITMAP 
0600
0600
0000
0000
FFF0
0000
0000
0600
0600
ENDCHAR
STARTCHAR charD7
ENCODING 215
SWIDTH 1000 0
DWIDTH 16 0
BBX 12 11 2 0
VVECTOR 8 13
SWIDTH1 0 -1000
DWIDTH1 0 -16
BITMAP 
0600
0F00
1980
30C0
6060
C030
6060
30C0
1980
0F00
0600
ENDCHAR
STARTCHAR charD8
ENCODING 216
SWIDTH 688 0
DWIDTH 11 0
BBX 9 13 1 -3
VVECTOR 6 13
SWIDTH1 0 -1000
DWIDTH1 0 -16
BITMAP 
6300
0000
0000
C180
C180
6300
6300
3600
3600
1C00
0C00
1800
E000
ENDCHAR
STARTCHAR missing
ENCODING -1
SWIDTH 812 0
DWIDTH 13 0
BBX 11 13 1 -2
VVECTOR 7 13
SWIDTH1 0 -1000
DWIDTH1 0 -16
BITMAP 
FFE0
E0E0
CE60
CE60
FE60
FCE0
F9E0
F9E0
F9E0
FFE0
F9E0
F9E0
FFE0
ENDCHAR
ENDFONT
